<?xml version="1.0" encoding="UTF-8" standalone="no" ?>
<!DOCTYPE svg PUBLIC "-//W3C//DTD SVG 1.1//EN" "http://www.w3.org/Graphics/SVG/1.1/DTD/svg11.dtd">
<svg xmlns="http://www.w3.org/2000/svg" xmlns:xlink="http://www.w3.org/1999/xlink" version="1.1" width="500" height="500" viewBox="0 0 500 500" xml:space="preserve">
<!-- Created with SVG Stack Editor - https://svgstack.com -->
<defs>
</defs>
<rect x="0" y="0" width="100%" height="100%" fill="transparent"></rect>
<g transform="matrix(2.49 0 0 2.49 250 250)"  >
<g style=""   >
		<g transform="matrix(1 0 0 1 0 0)" id="path_0" clip-path="url(#CLIPPATH_1)"  >
<clipPath id="CLIPPATH_1" >
	<rect transform="matrix(1 0 0 1 0 2.47)" id="clip0_106_2269" x="-100" y="-100" rx="0" ry="0" width="200" height="200" />
</clipPath>
<path style="stroke: none; stroke-width: 1; stroke-dasharray: none; stroke-linecap: butt; stroke-dashoffset: 0; stroke-linejoin: miter; stroke-miterlimit: 4; fill: rgb(255,255,255); fill-rule: evenodd; opacity: 1;"  transform=" translate(-100.24, -97.81)" d="M 100.24 0.275146 C 44.9895 0.275146 0.239502 45.0251 0.239502 100.275 C 0.239502 144.525 28.8645 181.9 68.6145 195.15 C 73.6145 196.025 75.4895 193.025 75.4895 190.4 C 75.4895 188.025 75.3645 180.15 75.3645 171.775 C 50.2395 176.4 43.7395 165.65 41.7395 160.025 C 40.6145 157.15 35.7395 148.275 31.4895 145.9 C 27.9895 144.025 22.9895 139.4 31.3645 139.275 C 39.2395 139.15 44.8645 146.525 46.7395 149.525 C 55.7395 164.65 70.1145 160.4 75.8645 157.775 C 76.7395 151.275 79.3645 146.9 82.2395 144.4 C 59.9895 141.9 36.7395 133.275 36.7395 95.0251 C 36.7395 84.1501 40.6145 75.1501 46.9895 68.1501 C 45.9895 65.6501 42.4895 55.4001 47.9895 41.6501 C 47.9895 41.6501 56.3645 39.0251 75.4895 51.9001 C 83.4895 49.6501 91.9895 48.5251 100.49 48.5251 C 108.99 48.5251 117.49 49.6501 125.49 51.9001 C 144.615 38.9001 152.99 41.6501 152.99 41.6501 C 158.49 55.4001 154.99 65.6501 153.99 68.1501 C 160.365 75.1501 164.24 84.0251 164.24 95.0251 C 164.24 133.4 140.865 141.9 118.615 144.4 C 122.24 147.525 125.365 153.525 125.365 162.9 C 125.365 176.275 125.24 187.025 125.24 190.4 C 125.24 193.025 127.115 196.15 132.115 195.15 C 171.615 181.9 200.24 144.4 200.24 100.275 C 200.24 45.0251 155.49 0.275146 100.24 0.275146 Z" stroke-linecap="round" />
</g>
</g>
</g>
<g transform="matrix(2.49 0 0 2.49 250 250)"  >
<g style=""   >
		<g transform="matrix(1 0 0 1 0 0)" id="path_0" clip-path="url(#CLIPPATH_2)"  >
<clipPath id="CLIPPATH_2" >
	<rect transform="matrix(1 0 0 1 0 2.47)" id="clip0_106_2269" x="-100" y="-100" rx="0" ry="0" width="200" height="200" />
</clipPath>
<path style="stroke: none; stroke-width: 1; stroke-dasharray: none; stroke-linecap: butt; stroke-dashoffset: 0; stroke-linejoin: miter; stroke-miterlimit: 4; fill: rgb(255,255,255); fill-rule: evenodd; opacity: 1;"  transform=" translate(-100.24, -97.81)" d="M 100.24 0.275146 C 44.9895 0.275146 0.239502 45.0251 0.239502 100.275 C 0.239502 144.525 28.8645 181.9 68.6145 195.15 C 73.6145 196.025 75.4895 193.025 75.4895 190.4 C 75.4895 188.025 75.3645 180.15 75.3645 171.775 C 50.2395 176.4 43.7395 165.65 41.7395 160.025 C 40.6145 157.15 35.7395 148.275 31.4895 145.9 C 27.9895 144.025 22.9895 139.4 31.3645 139.275 C 39.2395 139.15 44.8645 146.525 46.7395 149.525 C 55.7395 164.65 70.1145 160.4 75.8645 157.775 C 76.7395 151.275 79.3645 146.9 82.2395 144.4 C 59.9895 141.9 36.7395 133.275 36.7395 95.0251 C 36.7395 84.1501 40.6145 75.1501 46.9895 68.1501 C 45.9895 65.6501 42.4895 55.4001 47.9895 41.6501 C 47.9895 41.6501 56.3645 39.0251 75.4895 51.9001 C 83.4895 49.6501 91.9895 48.5251 100.49 48.5251 C 108.99 48.5251 117.49 49.6501 125.49 51.9001 C 144.615 38.9001 152.99 41.6501 152.99 41.6501 C 158.49 55.4001 154.99 65.6501 153.99 68.1501 C 160.365 75.1501 164.24 84.0251 164.24 95.0251 C 164.24 133.4 140.865 141.9 118.615 144.4 C 122.24 147.525 125.365 153.525 125.365 162.9 C 125.365 176.275 125.24 187.025 125.24 190.4 C 125.24 193.025 127.115 196.15 132.115 195.15 C 171.615 181.9 200.24 144.4 200.24 100.275 C 200.24 45.0251 155.49 0.275146 100.24 0.275146 Z" stroke-linecap="round" />
</g>
</g>
</g>
</svg>